REM MD5 561d2009d015066cf9913f68b4a6bf44
FILE "Elfin Paradise (Japan).bin" BINARY
  TRACK 01 MODE2/2352
    INDEX 01 00:00:00
  TRACK 02 AUDIO
    INDEX 00 13:38:69
    INDEX 01 13:40:69
  TRACK 03 AUDIO
    INDEX 00 18:02:50
    INDEX 01 18:04:50
REM LEADOUT 21:04:50
